<?xml version="1.0" encoding="UTF-8" standalone="no"?>
<svg
   xmlns:dc="http://purl.org/dc/elements/1.1/"
   xmlns:cc="http://creativecommons.org/ns#"
   xmlns:rdf="http://www.w3.org/1999/02/22-rdf-syntax-ns#"
   xmlns:svg="http://www.w3.org/2000/svg"
   xmlns="http://www.w3.org/2000/svg"
   xmlns:sodipodi="http://sodipodi.sourceforge.net/DTD/sodipodi-0.dtd"
   xmlns:inkscape="http://www.inkscape.org/namespaces/inkscape"
   width="210mm"
   height="297mm"
   viewBox="0 0 210 297"
   version="1.1"
   id="svg8"
   inkscape:version="1.0.1 (3bc2e813f5, 2020-09-07)"
   sodipodi:docname="logo.svg">
  <defs
     id="defs2">
    <clipPath
       clipPathUnits="userSpaceOnUse"
       id="clipPath348">
      <rect
         style="fill:none;fill-opacity:1;fill-rule:evenodd;stroke:none;stroke-width:0.999999;stroke-opacity:1"
         id="rect350"
         width="214.17162"
         height="371.40375"
         x="275.8284"
         y="154.59619" />
    </clipPath>
    <clipPath
       clipPathUnits="userSpaceOnUse"
       id="clipPath352">
      <rect
         style="fill:none;fill-opacity:1;fill-rule:evenodd;stroke:none;stroke-width:0.264583;stroke-opacity:1"
         id="rect354"
         width="56.666241"
         height="98.267242"
         x="72.979599"
         y="40.903576" />
    </clipPath>
    <clipPath
       clipPathUnits="userSpaceOnUse"
       id="clipPath356">
      <rect
         style="fill:none;fill-opacity:1;fill-rule:evenodd;stroke:none;stroke-width:0.999999;stroke-opacity:1"
         id="rect358"
         width="214.17162"
         height="371.40375"
         x="275.8284"
         y="154.59619" />
    </clipPath>
    <clipPath
       clipPathUnits="userSpaceOnUse"
       id="clipPath360">
      <rect
         style="fill:none;fill-opacity:1;fill-rule:evenodd;stroke:none;stroke-width:0.999999;stroke-opacity:1"
         id="rect362"
         width="214.17162"
         height="371.40375"
         x="275.8284"
         y="154.59619" />
    </clipPath>
    <clipPath
       clipPathUnits="userSpaceOnUse"
       id="clipPath364">
      <rect
         style="fill:none;fill-opacity:1;fill-rule:evenodd;stroke:none;stroke-width:0.170423;stroke-opacity:1"
         id="rect366"
         width="45.638695"
         height="50.621037"
         x="59.276661"
         y="64.097534" />
    </clipPath>
  </defs>
  <sodipodi:namedview
     id="base"
     pagecolor="#ffffff"
     bordercolor="#666666"
     borderopacity="1.0"
     inkscape:pageopacity="0.0"
     inkscape:pageshadow="2"
     inkscape:zoom="0.70710678"
     inkscape:cx="446.83834"
     inkscape:cy="563.58331"
     inkscape:document-units="mm"
     inkscape:current-layer="g376"
     inkscape:document-rotation="0"
     showgrid="false"
     inkscape:window-width="1920"
     inkscape:window-height="1001"
     inkscape:window-x="1691"
     inkscape:window-y="-9"
     inkscape:window-maximized="1" />
  <metadata
     id="metadata5">
    <rdf:RDF>
      <cc:Work
         rdf:about="">
        <dc:format>image/svg+xml</dc:format>
        <dc:type
           rdf:resource="http://purl.org/dc/dcmitype/StillImage" />
        <dc:title></dc:title>
      </cc:Work>
    </rdf:RDF>
  </metadata>
  <g
     inkscape:groupmode="layer"
     id="layer3"
     inkscape:label="Calque 2">
    <g
       id="g376"
       transform="matrix(2.9932618,0,0,2.7639984,-199.55116,-100.9491)">
      <path
         style="fill:#171310;stroke:#00A86B;stroke-width:3.0"
         d="m 370.21098,510.2285 c -7.18804,-6.30589 -29.44526,-26.02881 -49.46049,-43.82872 -20.01522,-17.7999 -37.04636,-32.85513 -37.84697,-33.45607 l -1.45565,-1.09262 0.15486,-28.58913 c 0.0852,-15.72402 -0.0458,-50.07456 -0.29113,-76.33454 -0.2453,-26.25997 -0.35618,-54.68887 -0.2464,-63.17533 l 0.19958,-15.42992 4.74964,-4.22011 c 2.61229,-2.32106 7.10779,-6.4452 9.98998,-9.16474 2.88219,-2.71954 5.39885,-4.94726 5.59258,-4.95049 0.19373,-0.004 1.71517,-1.44698 3.38097,-3.20832 1.6658,-1.76133 3.15622,-3.20243 3.31204,-3.20243 0.62395,0 26.43477,-24.02634 26.43477,-24.60715 0,-0.34329 0.15604,-0.46812 0.34676,-0.27741 0.19071,0.19072 9.03521,-7.56063 19.65443,-17.22522 10.61922,-9.66459 21.10832,-19.18393 23.30912,-21.1541 l 4.00145,-3.58211 10.36576,9.15242 c 5.70116,5.03384 28.42297,25.21361 50.4929,44.84395 l 40.12716,35.69151 0.41278,20.72048 c 0.22703,11.39627 0.40244,52.69944 0.3898,91.78483 l -0.023,71.06435 -3.37596,3.20244 c -1.85677,1.76134 -18.56451,17.09249 -37.12831,34.06924 -51.99786,47.55244 -59.55772,54.43444 -59.79619,54.43444 -0.12173,0 -6.10245,-5.15936 -13.2905,-11.46525 z"
         id="path169"
         clip-path="url(#clipPath356)"
         transform="matrix(0.26458333,0,0,0.26458333,-1.2500652,-0.27075076)" />
      <path
         style="fill:#00A86B;fill-opacity:1;fill-rule:evenodd;stroke:#171310;stroke-width:0.5;stroke-opacity:1"
         d="m 320.87265,418.65524 c -9.41506,-0.72279 -19.18564,-4.30218 -21.61035,-7.91681 -4.02334,-5.99781 1.62625,-12.13166 22.9834,-24.95347 18.4572,-11.08081 55.03855,-31.10265 55.67109,-30.47011 0.13137,0.13137 -2.4539,2.40033 -5.74503,5.04213 -5.83836,4.68647 -9.31245,6.76331 -25.0481,14.97396 -15.83195,8.2609 -21.31504,11.74845 -25.70244,16.34819 -2.45772,2.57665 -2.79857,3.1815 -2.79857,4.96602 0,1.89918 0.17159,2.14464 2.625,3.75504 5.12395,3.36334 13.31731,5.28718 22.51729,5.28718 10.56919,0 24.26282,-3.1873 37.60771,-8.7535 6.75982,-2.81955 19.38361,-9.06571 21.61709,-10.69599 2.91088,-2.12473 3.99283,-4.04784 7.53571,-13.39431 4.83322,-12.75054 4.94582,-14.91677 1.56742,-30.1562 -3.90378,-17.6093 -4.65755,-26.95402 -2.63163,-32.625 0.56489,-1.58125 0.94227,-2.875 0.83861,-2.875 -0.10365,0 -2.73501,0.7719 -5.84745,1.71532 -6.74626,2.04488 -16.4599,3.97464 -24.20404,4.8085 -7.23022,0.77851 -23.51026,0.3467 -28.37571,-0.75264 -11.73351,-2.65116 -17.55308,-6.29779 -18.55252,-11.62528 -0.74317,-3.96144 2.77993,-9.61951 9.16435,-14.7179 12.22554,-9.76291 61.25775,-39.12619 84.26214,-50.46097 9.42082,-4.64185 19.81548,-9.19424 20.1743,-8.83542 0.11867,0.11867 -3.3761,2.95256 -7.76614,6.29754 -7.16903,5.46243 -8.65378,6.36466 -14.57949,8.85949 -12.30285,5.17971 -26.0493,12.37002 -42.62369,22.29501 -10.63522,6.36852 -11.77196,7.1611 -18.52512,12.91635 -9.73657,8.29782 -11.6532,14.01306 -6.11574,18.23668 2.65489,2.02499 9.08484,4.12733 14.45459,4.72609 6.17935,0.68904 20.49551,0.69114 26.75202,0.004 11.92373,-1.3097 26.0003,-4.99083 34.73058,-9.0823 2.40641,-1.12777 4.54391,-1.88144 4.75,-1.67483 0.46726,0.46845 0.44749,5.63434 -0.0233,6.10519 -0.19018,0.19018 -0.8021,-0.0672 -1.35983,-0.57192 -0.99206,-0.8978 -1.05312,-0.88057 -2.81568,0.79473 -0.9909,0.94184 -2.38863,2.94994 -3.10607,4.46244 -1.23726,2.60837 -1.30279,3.14912 -1.27254,10.5 0.0302,7.34276 0.17034,8.41997 2.66655,20.5 2.31959,11.22529 2.6024,13.23405 2.36495,16.79775 -0.55226,8.28835 -5.22112,18.77574 -11.91288,26.75921 -5.19511,6.19793 -15.29627,13.67246 -27.60174,20.42439 -15.44598,8.47511 -22.97778,11.89968 -35.97284,16.35621 -10.94558,3.75368 -14.27229,4.65764 -21.84183,5.93504 -7.61074,1.28436 -8.23084,1.31089 -16.25,0.69526 z"
         id="path315"
         transform="matrix(0.26458333,0,0,0.26458333,-0.37500898,3.1136305)"
         clip-path="url(#clipPath348)" />
    </g>
  </g>
</svg>
