<?xml version="1.0" encoding="UTF-8" standalone="no"?>
<!DOCTYPE svg PUBLIC "-//W3C//DTD SVG 20010904//EN"
              "http://www.w3.org/TR/2001/REC-SVG-20010904/DTD/svg10.dtd">

<svg xmlns="http://www.w3.org/2000/svg"
     width="14.9473mm" height="14.9473mm"
     viewBox="0 0 600 600">
  <path id="Sélection"
        fill="#00A86B" stroke="#171310" stroke-width="1"
        d="M 276.00,0.21
           C 276.00,0.21 252.00,3.27 252.00,3.27
             233.95,5.93 211.07,11.99 194.00,18.42
             113.25,48.88 48.88,113.25 18.42,194.00
             9.28,218.26 2.98,246.17 0.92,272.00
             0.92,272.00 0.00,282.00 0.00,282.00
             -0.31,308.77 -0.39,328.34 4.42,355.00
             15.09,414.12 44.61,470.43 87.09,512.91
             119.54,545.37 160.49,570.50 204.00,585.00
             226.00,592.33 248.88,597.23 272.00,599.08
             272.00,599.08 282.00,600.00 282.00,600.00
             282.00,600.00 316.00,600.00 316.00,600.00
             316.00,600.00 337.00,598.15 337.00,598.15
             374.53,593.67 412.02,582.22 445.00,563.58
             487.18,539.74 522.66,508.48 549.65,468.00
             630.65,346.50 613.51,180.91 506.00,80.91
             480.43,57.13 452.16,37.96 420.00,24.15
             392.97,12.54 366.20,5.33 337.00,1.85
             337.00,1.85 316.00,0.21 316.00,0.21
             316.00,0.21 276.00,0.21 276.00,0.21 Z
           M 297.00,30.29
           C 297.00,30.29 316.00,31.00 316.00,31.00
             330.06,31.07 348.18,34.52 362.00,37.58
             448.88,56.76 522.42,122.73 552.95,206.00
             560.81,227.44 568.89,261.25 569.04,284.00
             569.04,284.00 569.04,293.00 569.04,293.00
             569.04,293.00 569.82,300.00 569.82,300.00
             569.82,300.00 569.00,310.00 569.00,310.00
             568.22,376.63 537.46,445.46 490.00,491.99
             463.06,518.40 430.28,539.27 395.00,552.58
             368.02,562.75 338.82,568.67 310.00,569.00
             310.00,569.00 300.00,569.82 300.00,569.82
             300.00,569.82 293.00,569.04 293.00,569.04
             293.00,569.04 283.00,569.04 283.00,569.04
             261.76,568.75 232.21,561.74 212.00,555.00
             187.99,546.99 164.57,534.86 144.00,520.14
             109.64,495.55 82.47,465.19 62.31,428.00
             21.60,352.90 20.13,258.72 57.26,182.00
             90.02,114.31 150.06,63.38 222.00,41.72
             236.46,37.37 253.98,33.67 269.00,32.17
             269.00,32.17 283.00,31.00 283.00,31.00
             289.13,30.93 290.66,31.19 297.00,30.29 Z
           M 121.00,346.00
           C 121.00,346.00 155.00,381.00 155.00,381.00
             157.45,383.45 164.78,391.80 168.00,391.80
             170.96,391.80 175.91,386.09 178.00,384.00
             178.00,384.00 202.00,360.00 202.00,360.00
             202.00,360.00 266.00,296.00 266.00,296.00
             266.00,296.00 300.00,261.00 300.00,261.00
             300.00,261.00 431.00,392.00 431.00,392.00
             431.00,392.00 449.00,375.00 449.00,375.00
             449.00,375.00 479.00,345.00 479.00,345.00
             474.79,339.13 467.29,332.29 462.00,327.00
             462.00,327.00 434.00,299.00 434.00,299.00
             434.00,299.00 346.00,211.00 346.00,211.00
             346.00,211.00 314.00,179.00 314.00,179.00
             311.55,176.55 304.22,168.20 301.00,168.20
             297.78,168.20 290.45,176.55 288.00,179.00
             288.00,179.00 255.00,212.00 255.00,212.00
             255.00,212.00 121.00,346.00 121.00,346.00 Z" />
</svg>
